<svg xmlns="http://www.w3.org/2000/svg" width="50" height="46" viewBox="0 0 50 46" fill="none"><path d="M9.65688 40.8545C9.65688 39.9446 9.92341 39.1036 10.4986 38.4005C10.7511 38.0971 10.709 37.8903 10.5266 37.587C8.49255 34.1266 6.45848 30.6799 4.45247 27.2056C4.21399 26.792 3.93343 26.6128 3.45648 26.5301C1.5206 26.213 0.103771 24.6275 0.00557439 22.7249C-0.092622 20.7534 1.11379 18.9749 3.04966 18.5613C3.94746 18.3683 4.3683 17.9133 4.78914 17.1964C6.6689 13.9152 8.60477 10.6477 10.5266 7.39402C10.709 7.09071 10.737 6.8977 10.4986 6.5806C9.46049 5.18814 9.33423 3.67159 10.1619 2.15505C10.9755 0.679866 12.3082 -0.0508327 14.0056 0.00431437C15.7591 0.0732482 17.0076 0.955601 17.695 2.54108C17.8493 2.88575 18.0036 3.02362 18.4104 3.02362C22.4505 3.00983 26.4905 3.00983 30.5447 3.02362C30.9374 3.02362 31.1058 2.89954 31.2601 2.55487C31.9615 0.983175 33.196 0.0732482 34.9495 0.00431437C36.6749 -0.0646195 38.0076 0.693653 38.8212 2.19641C39.6348 3.69917 39.4946 5.18814 38.4845 6.5806C38.2881 6.84255 38.2601 7.02178 38.4284 7.29751C40.5326 10.8545 42.6088 14.4253 44.713 17.9823C44.8252 18.1615 45.0777 18.3407 45.3022 18.3683C47.5186 18.7267 49.0196 20.3949 49.0196 22.5181C49.0056 24.6137 47.5046 26.2543 45.3162 26.6128C45.1058 26.6541 44.8392 26.8196 44.727 26.9988C42.6228 30.5558 40.5467 34.1266 38.4425 37.6835C38.2741 37.9593 38.2881 38.1385 38.4845 38.4005C39.5086 39.8067 39.6489 41.3095 38.8072 42.826C37.9936 44.3012 36.6749 45.0457 34.9635 44.9767C33.1819 44.9078 31.9475 43.9841 31.2461 42.3848C31.1058 42.0539 30.9515 41.9574 30.6008 41.9574C26.5467 41.9712 22.4785 41.9712 18.4244 41.9574C18.0316 41.9574 17.8493 42.0815 17.709 42.44C16.9374 44.2874 15.0016 45.3076 13.0236 44.9216C11.0597 44.5356 9.64285 42.826 9.65688 40.8545ZM12.9114 23.2764C12.715 23.2764 12.5326 23.2764 12.3362 23.2764C11.1579 23.2764 9.99355 23.2902 8.81519 23.2626C8.46449 23.2626 8.29616 23.3453 8.19796 23.7038C7.98754 24.4758 7.55267 25.1238 6.92141 25.6201C6.57071 25.8959 6.17792 26.1164 5.77111 26.3922C7.87531 29.963 9.9655 33.5337 12.0697 37.1183C12.9535 36.7185 13.8092 36.6082 14.6929 36.8288C15.0577 36.9253 15.212 36.8288 15.3944 36.5255C16.1519 35.1881 16.9374 33.8646 17.723 32.5549C18.1018 32.9409 18.4525 33.3131 18.8453 33.7267C18.1158 34.9813 17.3302 36.3187 16.5306 37.6835C17.3723 38.4005 17.8633 39.3104 18.0316 40.4271C18.2561 40.4271 18.4384 40.4271 18.6348 40.4271C21.3282 40.4271 24.0216 40.4271 26.715 40.4271C27.9915 40.4271 29.2681 40.4409 30.5447 40.4133C30.699 40.4133 30.9655 40.303 30.9795 40.2065C31.1619 39.1725 31.695 38.3591 32.4665 37.656C31.6669 36.2911 30.8813 34.9538 30.1799 33.7405C30.6008 33.3131 30.9515 32.9409 31.3162 32.5824C32.0737 33.8784 32.8593 35.2295 33.6589 36.5668C33.743 36.7047 33.9535 36.8977 34.0517 36.8701C35.0336 36.6357 35.9875 36.746 36.9274 37.1459C39.0457 33.5337 41.1358 29.9767 43.24 26.3784C41.9354 25.7718 41.0938 24.8619 40.715 23.5521C40.6869 23.428 40.4064 23.3177 40.238 23.3177C39.0176 23.3039 37.7831 23.3039 36.5627 23.3039C36.3803 23.3039 36.198 23.2902 35.9735 23.2764C36.0717 22.8766 36.1839 22.5457 36.226 22.201C36.2681 21.815 36.4645 21.746 36.8292 21.746C37.9094 21.7598 39.0036 21.7323 40.0837 21.7598C40.5186 21.7736 40.6869 21.622 40.8413 21.2221C41.0657 20.6569 41.4024 20.1054 41.8092 19.6505C42.1739 19.2369 42.707 18.9611 43.198 18.5889C41.1218 15.0457 39.0316 11.4749 37.0256 8.06957C36.0857 8.13851 35.2721 8.29016 34.4725 8.20744C33.9254 8.15229 33.715 8.29016 33.4765 8.71755C32.5928 10.2755 31.6669 11.8196 30.727 13.4188C30.2641 13.1293 29.8292 12.8674 29.3944 12.6054C30.4324 10.8269 31.4425 9.10358 32.4525 7.38023C31.723 6.75983 31.204 6.02913 31.0356 5.1192C30.9515 4.69181 30.7831 4.62288 30.3903 4.62288C26.4344 4.63667 22.4785 4.63667 18.5226 4.63667C18.3543 4.63667 18.1859 4.63667 18.0036 4.63667C17.8493 5.76718 17.3302 6.66332 16.5166 7.38023C17.5547 9.14494 18.5647 10.8683 19.5887 12.633C19.1118 12.9225 18.6909 13.1707 18.2561 13.4326C18.1298 13.2258 18.0457 13.088 17.9475 12.9363C17.0777 11.4611 16.222 9.98593 15.3382 8.51075C15.2541 8.35909 15.0156 8.16608 14.9034 8.19365C13.9354 8.41424 12.9956 8.34531 12.0557 7.9317C9.95147 11.5301 7.86129 15.1008 5.74305 18.6854C7.06169 19.292 7.90337 20.2157 8.28213 21.553C8.31018 21.6633 8.56269 21.7598 8.717 21.7736C9.54465 21.8012 10.3583 21.7874 11.1859 21.7874C12.6449 21.7874 12.6449 21.7874 12.9254 23.1937C12.9394 23.1523 12.9254 23.1661 12.9114 23.2764Z" fill="white"></path><path d="M23.657 21.7048C20.5007 21.7048 17.3865 21.7048 14.2442 21.7048C13.8935 20.0918 13.6691 18.4787 13.655 16.8519C13.655 16.3418 14.0338 16.1212 14.5248 16.0661C16.5168 15.8455 18.4105 15.2664 20.0378 14.1083C21.1741 13.2949 22.1841 12.3023 23.2362 11.3786C23.3624 11.2683 23.4747 11.1304 23.657 10.9374C23.657 14.5633 23.657 18.1065 23.657 21.7048Z" fill="white"></path><path d="M25.3264 21.6497C25.3264 18.0927 25.3264 14.5495 25.3264 11.0891C25.8875 11.5992 26.4767 12.1368 27.0659 12.6607C29.1 14.4806 31.4286 15.6663 34.1781 16.0109C35.2162 16.135 35.4126 16.3418 35.3144 17.3896C35.1881 18.7269 34.9777 20.0504 34.7813 21.374C34.7673 21.4981 34.5569 21.7049 34.4306 21.7049C31.4426 21.7186 28.4547 21.7049 25.4667 21.7049C25.4386 21.7049 25.4106 21.6773 25.3264 21.6497Z" fill="white"></path><path d="M14.6089 23.3041C17.667 23.3041 20.655 23.3041 23.671 23.3041C23.671 27.1369 23.671 30.9282 23.671 34.8161C18.649 32.4861 16.1099 28.3501 14.6089 23.3041Z" fill="white"></path><path d="M25.3264 23.3041C28.3284 23.3041 31.2883 23.3041 34.2483 23.3041C34.094 27.1644 28.8615 33.8648 25.3264 34.7334C25.3264 30.942 25.3264 27.1369 25.3264 23.3041Z" fill="white"></path></svg>